<?xml version="1.0" standalone="no"?>
<!DOCTYPE svg PUBLIC "-//W3C//DTD SVG 20010904//EN"
 "http://www.w3.org/TR/2001/REC-SVG-20010904/DTD/svg10.dtd">
<svg version="1.0" xmlns="http://www.w3.org/2000/svg"
 width="1280.000000pt" height="1280.000000pt" viewBox="0 0 1280.000000 1280.000000"
 preserveAspectRatio="xMidYMid meet">
<metadata>
Created by potrace 1.16, written by Peter Selinger 2001-2019
</metadata>
<g transform="translate(0.000000,1280.000000) scale(0.100000,-0.100000)"
fill="#000000" stroke="none">
<path d="M0 6400 l0 -6400 6400 0 6400 0 0 6400 0 6400 -6400 0 -6400 0 0
-6400z m1330 500 l0 -240 -45 0 -45 0 0 -122 c0 -71 4 -118 9 -112 5 5 52 59
106 119 84 94 94 110 76 113 -21 3 -21 6 -21 243 l0 239 435 0 435 0 -2 -262
-3 -263 -120 -3 -120 -3 -53 -57 c-29 -31 -87 -92 -129 -134 l-75 -78 13 -32
c7 -18 75 -168 150 -333 l138 -300 100 -3 101 -3 0 -259 0 -260 -435 0 -435 0
0 250 0 250 60 0 c33 0 60 2 60 5 0 14 -105 252 -117 264 -2 3 -49 -40 -103
-94 -91 -91 -100 -103 -100 -137 l0 -38 60 0 60 0 0 -250 0 -250 -415 0 -415
0 0 260 0 260 70 0 70 0 0 470 0 469 -67 3 -68 3 -3 263 -2 262 415 0 415 0 0
-240z m1988 -22 l-3 -263 -67 -3 -68 -3 0 -469 0 -470 70 0 70 0 0 -260 0
-260 -440 0 -440 0 0 260 0 260 70 0 70 0 0 470 0 469 -67 3 -68 3 -3 263 -2
262 440 0 440 0 -2 -262z m1489 105 l152 -158 1 -162 0 -163 -295 0 -295 0 0
54 0 55 -130 3 -130 3 0 -92 0 -93 314 0 c187 0 316 -4 318 -9 2 -6 41 -49 87
-97 47 -47 100 -104 118 -126 l33 -40 0 -332 0 -332 -172 -172 -173 -172 -391
0 -390 0 -172 173 -172 172 0 173 0 172 300 0 300 0 0 -85 0 -86 128 3 127 3
3 143 3 142 -303 1 -303 1 -127 136 -128 137 0 280 0 279 168 172 167 171 405
2 405 1 152 -157z m1173 -87 l0 -245 -32 -3 -33 -3 -3 -108 -3 -108 128 3 128
3 0 105 0 105 -37 3 -38 3 0 245 0 244 395 0 395 0 0 -266 0 -266 -55 4 c-30
1 -56 0 -58 -4 -1 -5 -1 -217 1 -473 l2 -465 55 0 55 0 0 -260 0 -260 -395 0
-395 0 0 244 0 245 38 3 37 3 0 120 0 120 -127 3 -128 3 0 -126 0 -125 35 0
35 0 0 -245 0 -245 -405 0 -405 0 0 260 0 260 70 0 70 0 2 445 c1 245 2 455 2
468 1 20 -4 22 -69 27 l-70 5 -3 263 -2 262 405 0 405 0 0 -244z m2374 62
l176 -181 0 -631 0 -631 -26 -30 c-14 -16 -93 -99 -176 -182 l-151 -153 -381
0 -381 0 -70 74 c-38 41 -116 122 -172 180 l-103 106 0 642 0 643 172 172 173
173 381 0 382 0 176 -182z m1757 14 l171 -167 -2 -285 -1 -284 -95 -89 c-108
-102 -105 -89 -48 -213 20 -44 52 -113 70 -154 19 -41 38 -82 43 -90 6 -11 30
-16 95 -18 l86 -3 0 -259 0 -260 -400 0 -400 0 0 245 0 245 25 0 c14 0 25 5
25 11 0 15 -112 232 -125 242 -5 4 -30 6 -55 5 l-45 -3 -5 -127 -5 -127 50 -3
50 -3 3 -242 2 -243 -420 0 -420 0 0 260 0 259 68 3 67 3 3 467 2 467 -67 3
-68 3 -3 263 -2 262 615 0 616 0 170 -168z m2069 -147 l0 -315 -300 0 -300 0
0 49 0 50 -125 3 -125 3 0 -105 0 -105 232 0 233 0 3 -247 2 -248 -235 0 -235
0 0 -120 0 -120 125 0 124 0 3 68 3 67 298 3 297 2 0 -330 0 -330 -795 0 -795
0 0 260 0 259 68 3 67 3 3 445 c1 245 0 455 -3 468 -5 20 -11 22 -70 22 l-65
0 0 265 0 265 795 0 795 0 0 -315z"/>
<path d="M680 6880 l0 -100 70 0 70 0 0 -635 0 -635 -70 0 -70 0 0 -100 0
-100 238 2 237 3 3 75 c4 109 0 120 -48 120 l-40 0 0 138 c0 118 3 141 18 158
9 10 75 84 147 164 202 225 209 233 214 218 2 -7 42 -96 88 -198 47 -102 95
-207 108 -235 12 -27 39 -88 60 -135 21 -47 42 -91 48 -97 7 -10 -9 -13 -77
-13 l-86 0 0 -100 0 -100 255 0 255 0 0 100 0 100 -60 0 -60 0 -25 50 c-14 27
-34 71 -44 97 -11 27 -33 80 -51 118 -17 39 -40 89 -51 113 -10 23 -28 61 -38
85 -21 46 -43 95 -122 272 l-51 116 23 27 c13 15 51 56 84 92 222 242 260 284
263 291 2 5 33 9 68 9 l64 0 0 100 0 100 -255 0 -255 0 0 -100 0 -99 80 -3 80
-3 -32 -35 c-18 -19 -62 -67 -98 -105 -84 -91 -251 -273 -270 -295 -60 -68
-274 -300 -277 -300 -1 0 -3 166 -3 369 l0 370 43 3 42 3 0 95 0 95 -237 3
-238 2 0 -100z"/>
<path d="M2614 6967 c-3 -8 -4 -52 -2 -98 l3 -84 68 -3 67 -3 0 -634 0 -634
-67 -3 -68 -3 0 -95 0 -95 263 -3 262 -2 0 100 0 100 -70 0 -70 0 0 635 0 635
70 0 70 0 0 100 0 100 -260 0 c-208 0 -262 -3 -266 -13z"/>
<path d="M3813 6858 l-122 -123 -1 -219 c-1 -201 0 -220 17 -240 11 -11 48
-54 83 -93 l63 -73 311 0 312 0 32 -33 32 -33 0 -217 0 -217 -56 -60 -57 -60
-192 0 -191 0 -57 66 c-48 56 -57 72 -57 105 l0 39 -120 0 -120 0 0 -68 c0
-76 -15 -54 161 -239 l78 -83 306 0 305 0 125 128 124 127 1 266 0 265 -92 92
-92 92 -306 0 -306 0 -32 33 -32 33 0 164 0 165 57 52 58 53 191 0 191 0 56
-47 c31 -27 56 -56 56 -65 1 -16 14 -18 126 -18 l125 0 0 42 c0 40 -5 47 -122
165 l-122 123 -306 0 -305 0 -122 -122z"/>
<path d="M5350 6880 l0 -100 70 0 70 0 0 -635 0 -635 -70 0 -70 0 0 -100 0
-100 230 0 230 0 0 100 0 100 -35 0 -35 0 0 280 0 280 300 0 300 0 0 -279 0
-280 -37 -3 -38 -3 0 -95 0 -95 220 0 220 0 0 95 0 95 -57 3 -58 3 0 634 0
634 57 3 58 3 0 95 0 95 -220 0 -220 0 0 -95 0 -95 38 -3 37 -3 0 -260 0 -259
-300 0 -300 0 0 260 0 260 35 0 35 0 0 100 0 100 -230 0 -230 0 0 -100z"/>
<path d="M7504 6967 c-6 -7 -65 -63 -132 -126 l-122 -114 0 -580 0 -579 121
-129 122 -129 306 0 306 0 122 127 122 128 1 578 0 579 -122 129 -123 128
-295 0 c-218 0 -298 -3 -306 -12z m554 -244 l52 -58 -2 -526 -3 -525 -49 -52
-49 -52 -201 0 -201 0 -52 51 -53 50 0 532 0 531 52 53 52 53 201 0 200 0 53
-57z"/>
<path d="M7670 6143 l0 -473 130 0 130 0 0 473 0 472 -130 0 -130 0 0 -472z"/>
<path d="M8890 6880 l0 -100 65 0 65 0 0 -635 0 -635 -65 0 -65 0 0 -100 0
-100 240 0 240 0 0 99 0 100 -47 3 -48 3 0 265 0 265 190 3 190 2 17 -37 c45
-98 144 -308 187 -398 l48 -100 -53 -3 -54 -3 0 -99 0 -100 230 0 230 0 0 100
0 100 -50 0 -49 0 -42 88 c-23 48 -63 132 -89 187 -26 55 -68 143 -93 195
l-46 95 110 109 109 108 0 218 0 218 -127 126 -128 126 -482 0 -483 0 0 -100z
m910 -147 l59 -48 0 -161 1 -161 -56 -61 -56 -62 -239 0 -239 0 0 263 c0 145
3 267 7 270 3 4 109 7 235 7 l229 0 59 -47z"/>
<path d="M9450 6510 l0 -100 120 0 120 0 0 100 0 100 -120 0 -120 0 0 -100z"/>
<path d="M10770 6975 c-1 -3 -1 -47 -1 -97 l-1 -93 69 -5 68 -5 3 -632 2 -633
-69 0 c-38 0 -71 -4 -73 -10 -1 -5 -2 -50 0 -100 l3 -90 615 0 614 0 0 165 0
165 -120 0 -120 0 0 -65 0 -65 -305 0 -305 0 0 285 0 285 240 0 240 0 0 80 0
80 -240 0 -240 0 0 270 0 270 305 0 305 0 0 -55 0 -55 120 0 120 0 0 155 0
155 -615 0 c-338 0 -615 -2 -615 -5z"/>
</g>
</svg>
